<?xml version="1.0" encoding="utf-8"?>
<!-- Generator: Adobe Illustrator 19.1.0, SVG Export Plug-In . SVG Version: 6.00 Build 0)  -->
<svg version="1.1" id="Capa_1" xmlns="http://www.w3.org/2000/svg" xmlns:xlink="http://www.w3.org/1999/xlink" x="0px" y="0px"
	 viewBox="-492.2 3726 150 150" enable-background="new -492.2 3726 150 150" xml:space="preserve">
<path fill-rule="evenodd" clip-rule="evenodd" fill="#FFFFFF" d="M-375.9,3805.6h-82.6c-2.5,0-4.6-2.1-4.6-4.6
	c0-2.5,2.1-4.6,4.6-4.6h82.6c2.5,0,4.6,2.1,4.6,4.6C-371.3,3803.6-373.3,3805.6-375.9,3805.6z M-375.9,3768.9h-82.6
	c-2.5,0-4.6-2.1-4.6-4.6c0-2.5,2.1-4.6,4.6-4.6h82.6c2.5,0,4.6,2.1,4.6,4.6C-371.3,3766.8-373.3,3768.9-375.9,3768.9z
	 M-458.5,3833.1h82.6c2.5,0,4.6,2,4.6,4.6c0,2.5-2.1,4.6-4.6,4.6h-82.6c-2.5,0-4.6-2.1-4.6-4.6C-463,3835.2-461,3833.1-458.5,3833.1
	z"/>
</svg>
